<mxfile host="app.diagrams.net" modified="2022-09-29T09:39:17.916Z" agent="5.0 (X11)" etag="5KfPdL5y-flj6rwjQ5gM" version="20.3.7" type="github">
  <diagram id="vR4M4Qg-3FGXWyI_U7lr" name="Seite-1">
    <mxGraphModel dx="1138" dy="563" grid="1" gridSize="10" guides="1" tooltips="1" connect="1" arrows="1" fold="1" page="1" pageScale="1" pageWidth="1169" pageHeight="827" math="0" shadow="0">
      <root>
        <mxCell id="0" />
        <mxCell id="1" parent="0" />
        <mxCell id="XjGaM9rbLymnAQcrOGoT-1" value="&lt;div&gt;Applicant&lt;/div&gt;" style="swimlane;html=1;startSize=20;fontStyle=0;collapsible=0;horizontal=0;swimlaneLine=1;swimlaneFillColor=#ffffff;strokeWidth=2;" vertex="1" parent="1">
          <mxGeometry x="40" y="20" width="1040" height="160" as="geometry" />
        </mxCell>
        <mxCell id="XjGaM9rbLymnAQcrOGoT-16" style="edgeStyle=orthogonalEdgeStyle;rounded=0;orthogonalLoop=1;jettySize=auto;html=1;exitX=1;exitY=0.5;exitDx=0;exitDy=0;exitPerimeter=0;entryX=0;entryY=0.5;entryDx=0;entryDy=0;entryPerimeter=0;" edge="1" parent="XjGaM9rbLymnAQcrOGoT-1" source="XjGaM9rbLymnAQcrOGoT-13" target="XjGaM9rbLymnAQcrOGoT-14">
          <mxGeometry relative="1" as="geometry" />
        </mxCell>
        <mxCell id="XjGaM9rbLymnAQcrOGoT-13" value="&lt;div&gt;wants a N4E Label&lt;/div&gt;" style="points=[[0.145,0.145,0],[0.5,0,0],[0.855,0.145,0],[1,0.5,0],[0.855,0.855,0],[0.5,1,0],[0.145,0.855,0],[0,0.5,0]];shape=mxgraph.bpmn.event;html=1;verticalLabelPosition=bottom;labelBackgroundColor=#ffffff;verticalAlign=top;align=center;perimeter=ellipsePerimeter;outlineConnect=0;aspect=fixed;outline=standard;symbol=general;fillColor=#FFFFFF;" vertex="1" parent="XjGaM9rbLymnAQcrOGoT-1">
          <mxGeometry x="70" y="32.5" width="35" height="35" as="geometry" />
        </mxCell>
        <mxCell id="XjGaM9rbLymnAQcrOGoT-26" value="" style="edgeStyle=orthogonalEdgeStyle;rounded=0;orthogonalLoop=1;jettySize=auto;html=1;entryX=0;entryY=0.5;entryDx=0;entryDy=0;entryPerimeter=0;" edge="1" parent="XjGaM9rbLymnAQcrOGoT-1" source="XjGaM9rbLymnAQcrOGoT-14" target="XjGaM9rbLymnAQcrOGoT-27">
          <mxGeometry relative="1" as="geometry">
            <mxPoint x="305" y="51" as="targetPoint" />
          </mxGeometry>
        </mxCell>
        <mxCell id="XjGaM9rbLymnAQcrOGoT-14" value="Browse N4E Website" style="points=[[0.25,0,0],[0.5,0,0],[0.75,0,0],[1,0.25,0],[1,0.5,0],[1,0.75,0],[0.75,1,0],[0.5,1,0],[0.25,1,0],[0,0.75,0],[0,0.5,0],[0,0.25,0]];shape=mxgraph.bpmn.task;whiteSpace=wrap;rectStyle=rounded;size=10;taskMarker=abstract;fillColor=#FFFFFF;" vertex="1" parent="XjGaM9rbLymnAQcrOGoT-1">
          <mxGeometry x="150" y="26" width="90" height="50" as="geometry" />
        </mxCell>
        <mxCell id="XjGaM9rbLymnAQcrOGoT-27" value="Download Application Form" style="points=[[0.25,0,0],[0.5,0,0],[0.75,0,0],[1,0.25,0],[1,0.5,0],[1,0.75,0],[0.75,1,0],[0.5,1,0],[0.25,1,0],[0,0.75,0],[0,0.5,0],[0,0.25,0]];shape=mxgraph.bpmn.task;whiteSpace=wrap;rectStyle=rounded;size=10;taskMarker=abstract;fillColor=#FFFFFF;" vertex="1" parent="XjGaM9rbLymnAQcrOGoT-1">
          <mxGeometry x="310" y="26" width="90" height="50" as="geometry" />
        </mxCell>
        <mxCell id="XjGaM9rbLymnAQcrOGoT-4" value="NFDI4Earth" style="swimlane;html=1;childLayout=stackLayout;resizeParent=1;resizeParentMax=0;horizontal=0;startSize=20;horizontalStack=0;fillColor=#FFFFFF;" vertex="1" parent="1">
          <mxGeometry x="40" y="200" width="1040" height="480" as="geometry" />
        </mxCell>
        <mxCell id="XjGaM9rbLymnAQcrOGoT-5" value="&lt;div&gt;N4E Label Website&lt;/div&gt;" style="swimlane;html=1;startSize=20;horizontal=0;fillColor=#FFFFFF;swimlaneFillColor=#FFFFFF;" vertex="1" parent="XjGaM9rbLymnAQcrOGoT-4">
          <mxGeometry x="20" width="1020" height="160" as="geometry" />
        </mxCell>
        <mxCell id="XjGaM9rbLymnAQcrOGoT-15" value="Website Database" style="shape=datastore;whiteSpace=wrap;html=1;labelPosition=center;verticalLabelPosition=bottom;align=center;verticalAlign=top;fillColor=#FFFFFF;" vertex="1" parent="XjGaM9rbLymnAQcrOGoT-5">
          <mxGeometry x="152" y="70" width="45" height="50" as="geometry" />
        </mxCell>
        <mxCell id="XjGaM9rbLymnAQcrOGoT-18" value="Application Information" style="shape=mxgraph.bpmn.data;labelPosition=center;verticalLabelPosition=bottom;align=center;verticalAlign=top;whiteSpace=wrap;size=15;html=1;fillColor=#FFFFFF;" vertex="1" parent="XjGaM9rbLymnAQcrOGoT-5">
          <mxGeometry x="230" y="20" width="40" height="60" as="geometry" />
        </mxCell>
        <mxCell id="XjGaM9rbLymnAQcrOGoT-22" value="" style="edgeStyle=elbowEdgeStyle;fontSize=12;html=1;endFill=0;startFill=0;endSize=6;startSize=6;dashed=1;dashPattern=1 4;endArrow=openThin;startArrow=none;rounded=0;entryX=0;entryY=0.5;entryDx=0;entryDy=0;entryPerimeter=0;exitX=1;exitY=0.5;exitDx=0;exitDy=0;" edge="1" parent="XjGaM9rbLymnAQcrOGoT-5" source="XjGaM9rbLymnAQcrOGoT-15" target="XjGaM9rbLymnAQcrOGoT-18">
          <mxGeometry width="160" relative="1" as="geometry">
            <mxPoint x="220" y="110" as="sourcePoint" />
            <mxPoint x="530" y="40" as="targetPoint" />
          </mxGeometry>
        </mxCell>
        <mxCell id="XjGaM9rbLymnAQcrOGoT-6" value="N4E Label Expert" style="swimlane;html=1;startSize=20;horizontal=0;swimlaneFillColor=#FFFFFF;" vertex="1" parent="XjGaM9rbLymnAQcrOGoT-4">
          <mxGeometry x="20" y="160" width="1020" height="160" as="geometry">
            <mxRectangle x="20" y="160" width="1020" height="30" as="alternateBounds" />
          </mxGeometry>
        </mxCell>
        <mxCell id="XjGaM9rbLymnAQcrOGoT-12" value="&lt;div&gt;N4E Label Assist&lt;/div&gt;" style="swimlane;html=1;startSize=20;horizontal=0;fillColor=#FFFFFF;swimlaneFillColor=#FFFFFF;" vertex="1" parent="XjGaM9rbLymnAQcrOGoT-4">
          <mxGeometry x="20" y="320" width="1020" height="160" as="geometry" />
        </mxCell>
        <mxCell id="XjGaM9rbLymnAQcrOGoT-21" value="" style="edgeStyle=elbowEdgeStyle;fontSize=12;html=1;endFill=0;startFill=0;endSize=6;startSize=6;dashed=1;dashPattern=1 4;endArrow=openThin;startArrow=none;rounded=0;exitX=0.5;exitY=1;exitDx=0;exitDy=0;exitPerimeter=0;" edge="1" parent="1" source="XjGaM9rbLymnAQcrOGoT-14" target="XjGaM9rbLymnAQcrOGoT-15">
          <mxGeometry width="160" relative="1" as="geometry">
            <mxPoint x="430" y="240" as="sourcePoint" />
            <mxPoint x="590" y="240" as="targetPoint" />
          </mxGeometry>
        </mxCell>
        <mxCell id="XjGaM9rbLymnAQcrOGoT-28" value="" style="edgeStyle=elbowEdgeStyle;fontSize=12;html=1;endFill=0;startFill=0;endSize=6;startSize=6;dashed=1;dashPattern=1 4;endArrow=openThin;startArrow=none;rounded=0;exitX=0.02;exitY=0.177;exitDx=0;exitDy=0;exitPerimeter=0;entryX=0.75;entryY=1;entryDx=0;entryDy=0;entryPerimeter=0;" edge="1" parent="1" source="XjGaM9rbLymnAQcrOGoT-18" target="XjGaM9rbLymnAQcrOGoT-14">
          <mxGeometry width="160" relative="1" as="geometry">
            <mxPoint x="302.5" y="220" as="sourcePoint" />
            <mxPoint x="257.5" y="96" as="targetPoint" />
            <Array as="points">
              <mxPoint x="258" y="160" />
            </Array>
          </mxGeometry>
        </mxCell>
      </root>
    </mxGraphModel>
  </diagram>
</mxfile>
